G04 DipTrace 2.3.1.0*
%INgengar.GTL*%
%MOIN*%
%ADD13C,0.013*%
%ADD14C,0.025*%
%ADD17C,0.04*%
%FSLAX44Y44*%
G04*
G70*
G90*
G75*
G01*
%LNTop*%
%LPD*%
X11365Y14648D2*
D13*
X11839Y14174D1*
X15615Y14398D2*
X15953D1*
X16244Y14688D1*
D17*
X11365Y14648D3*
X15615Y14398D3*
X7115Y12148D3*
X17615Y14648D3*
X5607Y22378D2*
D14*
X5881D1*
X13943D2*
X14252D1*
X5713Y22129D2*
X6416D1*
X13724D2*
X14295D1*
X21154D2*
X21262D1*
X5814Y21880D2*
X6952D1*
X13506D2*
X14334D1*
X20595D2*
X21124D1*
X5920Y21632D2*
X7491D1*
X13287D2*
X14377D1*
X20037D2*
X20983D1*
X6025Y21383D2*
X8026D1*
X13064D2*
X14416D1*
X19474D2*
X20846D1*
X6131Y21134D2*
X8561D1*
X12052D2*
X12190D1*
X12845D2*
X14459D1*
X18916D2*
X20733D1*
X6236Y20886D2*
X9096D1*
X11908D2*
X12307D1*
X12627D2*
X14502D1*
X18357D2*
X20616D1*
X6341Y20637D2*
X9635D1*
X11763D2*
X14541D1*
X16006D2*
X16141D1*
X17799D2*
X20502D1*
X6443Y20388D2*
X10170D1*
X11615D2*
X14584D1*
X15408D2*
X16038D1*
X17240D2*
X20385D1*
X6549Y20140D2*
X10706D1*
X11466D2*
X14624D1*
X14676D2*
X15932D1*
X16681D2*
X20268D1*
X6654Y19891D2*
X15827D1*
X16123D2*
X20155D1*
X6759Y19642D2*
X20038D1*
X6865Y19393D2*
X19920D1*
X6970Y19145D2*
X19807D1*
X7072Y18896D2*
X19713D1*
X7177Y18647D2*
X19647D1*
X7283Y18399D2*
X19577D1*
X7388Y18150D2*
X19510D1*
X7494Y17901D2*
X19444D1*
X7599Y17653D2*
X19377D1*
X7701Y17404D2*
X19307D1*
X7806Y17155D2*
X19241D1*
X7912Y16907D2*
X19174D1*
X8017Y16658D2*
X19104D1*
X7541Y16409D2*
X19038D1*
X5982Y16161D2*
X20420D1*
X6224Y15912D2*
X20256D1*
X6470Y15663D2*
X10561D1*
X11166D2*
X20092D1*
X6713Y15414D2*
X10315D1*
X11416D2*
X19928D1*
X6959Y15166D2*
X10159D1*
X11572D2*
X15924D1*
X16619D2*
X19760D1*
X7201Y14917D2*
X10280D1*
X11767D2*
X15592D1*
X16791D2*
X19596D1*
X7170Y14668D2*
X10526D1*
X12162D2*
X15213D1*
X16939D2*
X19854D1*
X6838Y14420D2*
X10936D1*
X12412D2*
X14858D1*
X16857D2*
X19952D1*
X6939Y14171D2*
X11131D1*
X12549D2*
X14506D1*
X16506D2*
X19678D1*
X7150Y13922D2*
X11272D1*
X12404D2*
X14416D1*
X15799D2*
X19866D1*
X6947Y13674D2*
X11522D1*
X12158D2*
X14565D1*
X15767D2*
X20065D1*
X6744Y13425D2*
X14737D1*
X15439D2*
X20264D1*
X6541Y13176D2*
X20463D1*
X6338Y12928D2*
X20635D1*
X6134Y12679D2*
X20795D1*
X5931Y12430D2*
X20956D1*
X5728Y12182D2*
X21116D1*
X5580Y11933D2*
X21276D1*
X5431Y11684D2*
X21436D1*
X5283Y11435D2*
X21596D1*
X5150Y11187D2*
X21698D1*
X5052Y10938D2*
X21795D1*
X4955Y10689D2*
X21889D1*
X4857Y10441D2*
X21987D1*
X4759Y10192D2*
X7327D1*
X7380D2*
X22084D1*
X4666Y9943D2*
X7100D1*
X7572D2*
X22182D1*
X4588Y9695D2*
X6877D1*
X7681D2*
X19342D1*
X19838D2*
X22264D1*
X4509Y9446D2*
X6651D1*
X7787D2*
X19249D1*
X20174D2*
X22334D1*
X4431Y9197D2*
X6424D1*
X7896D2*
X19155D1*
X20509D2*
X22409D1*
X4349Y8949D2*
X6198D1*
X7970D2*
X19061D1*
X20642D2*
X22389D1*
X4271Y8700D2*
X5975D1*
X7916D2*
X18967D1*
X20771D2*
X22366D1*
X4369Y8451D2*
X5073D1*
X5478D2*
X5916D1*
X7861D2*
X19038D1*
X20873D2*
X21120D1*
X21447D2*
X22346D1*
X4701Y8203D2*
X5053D1*
X7806D2*
X19147D1*
X21576D2*
X22323D1*
X7752Y7954D2*
X19252D1*
X21666D2*
X22018D1*
X22070D2*
X22284D1*
X7697Y7705D2*
X19323D1*
X7642Y7456D2*
X19393D1*
X7588Y7208D2*
X19463D1*
X7556Y6959D2*
X19530D1*
X7595Y6710D2*
X19561D1*
X7634Y6462D2*
X19553D1*
X7674Y6213D2*
X19545D1*
X7713Y5964D2*
X19538D1*
X7752Y5716D2*
X19530D1*
X7791Y5467D2*
X11100D1*
X12420D2*
X14936D1*
X16474D2*
X19522D1*
X7787Y5218D2*
X10709D1*
X13009D2*
X14909D1*
X17088D2*
X19627D1*
X7720Y4970D2*
X10319D1*
X13361D2*
X14881D1*
X17463D2*
X19737D1*
X7650Y4721D2*
X9924D1*
X13787D2*
X14854D1*
X17591D2*
X19850D1*
X8224Y4472D2*
X9534D1*
X14537D2*
X14772D1*
X17720D2*
X19256D1*
X14572Y14202D2*
X15079Y14551D1*
X15151Y14572D1*
X15185Y14574D1*
X15237Y14669D1*
X15322Y14759D1*
X15429Y14824D1*
X15549Y14858D1*
X15584D1*
X15621Y14921D1*
X15680Y14978D1*
X16164Y15317D1*
X16279Y15362D1*
X16403Y15350D1*
X16509Y15280D1*
X16820Y14842D1*
X16872Y14768D1*
X16917Y14652D1*
X16905Y14529D1*
X16835Y14423D1*
X16397Y14112D1*
X16323Y14060D1*
X16208Y14015D1*
X16081Y14029D1*
X16124Y14016D1*
X15990Y14070D1*
X15937Y14062D1*
X15836Y13989D1*
X15752Y13957D1*
X15780Y13902D1*
X15791Y13829D1*
X15781Y13754D1*
X15751Y13686D1*
X15703Y13629D1*
X15194Y13270D1*
X15128Y13236D1*
X15054Y13222D1*
X14980Y13229D1*
X14910Y13257D1*
X14851Y13303D1*
X14696Y13519D1*
X14462Y13862D1*
X14441Y13934D1*
Y14008D1*
X14462Y14080D1*
X14503Y14143D1*
X14572Y14202D1*
X11070Y15735D2*
X11502Y15297D1*
X11534Y15230D1*
X11547Y15156D1*
X11538Y15079D1*
X11651Y15014D1*
X11738Y14925D1*
X11782Y14846D1*
X11840Y14856D1*
X11960Y14827D1*
X12027Y14778D1*
X12444Y14361D1*
X12509Y14255D1*
X12518Y14132D1*
X12468Y14015D1*
X12091Y13633D1*
X12027Y13569D1*
X11921Y13504D1*
X11797Y13494D1*
X11681Y13545D1*
X11298Y13922D1*
X11234Y13986D1*
X11170Y14092D1*
X11161Y14219D1*
X11157Y14178D1*
X11110Y14259D1*
X11016Y14340D1*
X10947Y14444D1*
X10936Y14477D1*
X10873Y14465D1*
X10799Y14474D1*
X10730Y14502D1*
X10660Y14561D1*
X10228Y14999D1*
X10195Y15066D1*
X10182Y15140D1*
X10191Y15214D1*
X10219Y15283D1*
X10278Y15353D1*
X10716Y15785D1*
X10783Y15818D1*
X10857Y15830D1*
X10931Y15822D1*
X11000Y15793D1*
X11070Y15735D1*
X14747Y4391D2*
X14862Y4582D1*
X14956Y5407D1*
X15029Y5505D1*
X15058Y5516D1*
X15907Y5667D1*
X15972Y5661D1*
X17333Y5107D1*
X17395Y5052D1*
X17701Y4451D1*
X17737Y4231D1*
X18315Y4409D1*
X18385Y4410D1*
X19069Y4202D1*
X19269Y4455D1*
X19382Y4501D1*
X19986Y4476D1*
X19558Y5430D1*
X19547Y5481D1*
X19589Y6836D1*
X19288Y7929D1*
X18996Y8613D1*
X18994Y8703D1*
X19405Y9797D1*
X19500Y9874D1*
X19462Y9862D1*
X19581Y9863D1*
X20467Y9211D1*
X20502Y9171D1*
X20834Y8516D1*
X20886Y8276D1*
X21234Y8511D1*
X21356Y8519D1*
X21299Y8532D1*
X21406Y8480D1*
X21631Y8040D1*
X21642Y7957D1*
X21561Y7619D1*
X22009Y7931D1*
X22136Y7940D1*
X22264Y7854D1*
X22330Y7993D1*
X22435Y9196D1*
X22232Y9883D1*
X21627Y11428D1*
X20533Y13122D1*
X19770Y14072D1*
X19752Y14193D1*
X19783Y14242D1*
X20109Y14540D1*
X19688Y14773D1*
X19625Y14877D1*
X19644Y14952D1*
X20593Y16381D1*
X19184Y16190D1*
X19072Y16233D1*
X19050Y16353D1*
X19439Y17794D1*
X19776Y19025D1*
X20894Y21428D1*
X21340Y22222D1*
X16084Y19886D1*
X15965Y19895D1*
X15910Y20004D1*
X15918Y20048D1*
X16204Y20729D1*
X14804Y20148D1*
X14683Y20164D1*
X14724Y20143D1*
X14637Y20226D1*
X14220Y22720D1*
X12552Y20828D1*
X12439Y20787D1*
X12344Y20864D1*
X12132Y21315D1*
X11459Y20164D1*
X11391Y20109D1*
X10985Y20045D1*
X10916Y20054D1*
X5505Y22564D1*
X7950Y16758D1*
X7999Y16642D1*
X7984Y16521D1*
X8004Y16559D1*
X7920Y16473D1*
X5954Y16167D1*
X6481Y15626D1*
X7204Y14889D1*
X7235Y14771D1*
X7237Y14828D1*
X7203Y14713D1*
X6635Y14288D1*
X7069Y14104D1*
X7142Y14006D1*
X7132Y14045D1*
X7126Y13925D1*
X5695Y12171D1*
X5158Y11268D1*
X4661Y10011D1*
X4202Y8553D1*
X4832Y8086D1*
X5055Y7920D1*
X5097Y8452D1*
X5162Y8552D1*
X5284Y8550D1*
X5908Y8185D1*
X5968Y8633D1*
X5997Y8698D1*
X7279Y10112D1*
X7392Y10151D1*
X7486Y10074D1*
X7940Y9044D1*
X7948Y8967D1*
X7522Y7025D1*
X7786Y5307D1*
X7565Y4503D1*
X8004Y4583D1*
X8092Y4566D1*
X8412Y4289D1*
X8754Y4449D1*
X8847Y4453D1*
X9283Y4293D1*
X9966Y4730D1*
X11413Y5646D1*
X11503Y5663D1*
X12744Y5386D1*
X13626Y4766D1*
X14745Y4394D1*
X15115Y14564D2*
D13*
Y13232D1*
X10865Y15830D2*
Y14465D1*
G36*
X14704Y13970D2*
X15187Y14309D1*
X15526Y13825D1*
X15042Y13487D1*
X14704Y13970D1*
G37*
G36*
X15832Y14761D2*
X16316Y15099D1*
X16655Y14616D1*
X16171Y14277D1*
X15832Y14761D1*
G37*
G36*
X10865Y15565D2*
X11282Y15148D1*
X10865Y14730D1*
X10447Y15148D1*
X10865Y15565D1*
G37*
G36*
X11839Y14591D2*
X12257Y14174D1*
X11839Y13756D1*
X11422Y14174D1*
X11839Y14591D1*
G37*
G36*
X14115Y20148D2*
X14865D1*
Y19398D1*
X14115D1*
Y20148D1*
G37*
G36*
X15365Y19898D2*
X16115D1*
Y19398D1*
X15365D1*
Y19898D1*
G37*
G36*
X7115Y10648D2*
X7865D1*
Y10148D1*
X7115D1*
Y10648D1*
G37*
G36*
X21865Y8398D2*
X22115D1*
Y7898D1*
X21865D1*
Y8398D1*
G37*
M02*
