G04 DipTrace 2.3.1.0*
%INgengar.GBL*%
%MOIN*%
%ADD13C,0.013*%
%ADD16R,0.063X0.0709*%
%ADD17C,0.04*%
%FSLAX44Y44*%
G04*
G70*
G90*
G75*
G01*
%LNBottom*%
%LPD*%
X10741Y15898D2*
D13*
Y14522D1*
X13115Y12148D1*
X14115D1*
X17615D1*
Y12239D1*
Y14648D1*
X14115Y6898D2*
Y12148D1*
X17615Y12239D2*
X18287D1*
X18825Y11701D1*
X8012Y14148D2*
Y14046D1*
X7115Y13148D1*
Y12148D1*
X16115Y6898D2*
Y8398D1*
X17865Y10148D1*
X19615D1*
X19871Y10764D1*
X19865Y13148D1*
X18371Y15148D1*
X16638D1*
Y13148D1*
X14865D1*
Y17648D1*
X14365Y18148D1*
X8865D1*
X8615Y17898D1*
Y17398D1*
X9115Y14148D2*
X8615D1*
Y15898D1*
Y11648D2*
Y14148D1*
X15115Y6898D2*
Y6398D1*
X14615Y5898D1*
X10865D1*
X10365Y6398D1*
Y11398D1*
X10115Y11648D1*
X8615D1*
X10741Y17398D2*
X12762D1*
X8615Y16898D2*
X8115D1*
X7865Y17148D1*
Y18898D1*
X8115Y19148D1*
X12762D1*
X13865Y17398D2*
Y17148D1*
X11365Y14648D1*
X13865Y19148D2*
X14365D1*
X15615Y17898D1*
Y14398D1*
X12115Y6898D2*
Y10398D1*
X9865Y12898D1*
Y14398D1*
X9365Y14898D1*
Y16648D1*
X9615Y16898D1*
X10741D1*
X13115Y6898D2*
Y10898D1*
X10365Y13648D1*
Y14398D1*
X9865Y14898D1*
Y16148D1*
X10115Y16398D1*
X10741D1*
D17*
X11365Y14648D3*
X15615Y14398D3*
X7115Y12148D3*
X17615Y14648D3*
G36*
X9304Y10762D2*
X7926D1*
Y12534D1*
X9304D1*
Y10762D1*
G37*
G36*
X19514Y10815D2*
X18136D1*
Y12587D1*
X19514D1*
Y10815D1*
G37*
D16*
X9115Y14148D3*
X8012D3*
G36*
X16365Y6308D2*
X15865D1*
Y7488D1*
X16365D1*
Y6308D1*
G37*
G36*
X15365D2*
X14865D1*
Y7488D1*
X15365D1*
Y6308D1*
G37*
G36*
X14365D2*
X13865D1*
Y7488D1*
X14365D1*
Y6308D1*
G37*
G36*
X13365D2*
X12865D1*
Y7488D1*
X13365D1*
Y6308D1*
G37*
G36*
X12365D2*
X11865D1*
Y7488D1*
X12365D1*
Y6308D1*
G37*
G36*
X11365D2*
X10865D1*
Y7488D1*
X11365D1*
Y6308D1*
G37*
D16*
X13865Y17398D3*
X12762D3*
X13865Y19148D3*
X12762D3*
G36*
X9009Y16016D2*
Y15780D1*
X8221D1*
Y16016D1*
X9009D1*
G37*
G36*
Y16516D2*
Y16280D1*
X8221D1*
Y16516D1*
X9009D1*
G37*
G36*
Y17016D2*
Y16780D1*
X8221D1*
Y17016D1*
X9009D1*
G37*
G36*
Y17516D2*
Y17280D1*
X8221D1*
Y17516D1*
X9009D1*
G37*
G36*
X11134D2*
Y17280D1*
X10347D1*
Y17516D1*
X11134D1*
G37*
G36*
Y17016D2*
Y16780D1*
X10347D1*
Y17016D1*
X11134D1*
G37*
G36*
Y16516D2*
Y16280D1*
X10347D1*
Y16516D1*
X11134D1*
G37*
G36*
Y16016D2*
Y15780D1*
X10347D1*
Y16016D1*
X11134D1*
G37*
M02*
