  0
SECTION
  2
HEADER
  9
$ACADVER
  1
AC1014
  9
$HANDSEED
  5
FFFF
  9
$MEASUREMENT
 70
     1
  0
ENDSEC
  0
SECTION
  2
TABLES
  0
TABLE
  2
VPORT
  5
8
330
0
100
AcDbSymbolTable
 70
     4
  0
VPORT
  5
2E
330
8
100
AcDbSymbolTableRecord
100
AcDbViewportTableRecord
  2
*ACTIVE
 70
     0
 10
0.0
 20
0.0
 11
1.0
 21
1.0
 12
210.0
 22
148.5
 13
0.0
 23
0.0
 14
10.0
 24
10.0
 15
10.0
 25
10.0
 16
0.0
 26
0.0
 36
1.0
 17
0.0
 27
0.0
 37
0.0
 40
341.0
 41
1.24
 42
50.0
 43
0.0
 44
0.0
 50
0.0
 51
0.0
 71
     0
 72
   100
 73
     1
 74
     3
 75
     0
 76
     0
 77
     0
 78
     0
  0
ENDTAB
  0
TABLE
  2
LTYPE
  5
5
330
0
100
AcDbSymbolTable
 70
     1
  0
LTYPE
  5
14
330
5
100
AcDbSymbolTableRecord
100
AcDbLinetypeTableRecord
  2
BYBLOCK
 70
     0
  3

 72
    65
 73
     0
 40
0.0
  0
LTYPE
  5
15
330
5
100
AcDbSymbolTableRecord
100
AcDbLinetypeTableRecord
  2
BYLAYER
 70
     0
  3

 72
    65
 73
     0
 40
0.0
  0
LTYPE
  5
16
330
5
100
AcDbSymbolTableRecord
100
AcDbLinetypeTableRecord
  2
CONTINUOUS
 70
     0
  3
Solid line
 72
    65
 73
     0
 40
0.0
  0
ENDTAB
  0
TABLE
  2
LAYER
  5
2
100
AcDbSymbolTable
 70
9
  0
LAYER
  5
50
100
AcDbSymbolTableRecord
100
AcDbLayerTableRecord
  2
0
 70
0
  6
CONTINUOUS
  0
LAYER
  5
51
100
AcDbSymbolTableRecord
100
AcDbLayerTableRecord
  2
Layer_1
 70
0
  6
CONTINUOUS
  0
LAYER
  5
52
100
AcDbSymbolTableRecord
100
AcDbLayerTableRecord
  2
purp
 70
0
  6
CONTINUOUS
  0
LAYER
  5
53
100
AcDbSymbolTableRecord
100
AcDbLayerTableRecord
  2
soldermask
 70
0
  6
CONTINUOUS
  0
LAYER
  5
54
100
AcDbSymbolTableRecord
100
AcDbLayerTableRecord
  2
silk
 70
0
  6
CONTINUOUS
  0
LAYER
  5
55
100
AcDbSymbolTableRecord
100
AcDbLayerTableRecord
  2
smile
 70
0
  6
CONTINUOUS
  0
LAYER
  5
56
100
AcDbSymbolTableRecord
100
AcDbLayerTableRecord
  2
newsilk
 70
0
  6
CONTINUOUS
  0
LAYER
  5
57
100
AcDbSymbolTableRecord
100
AcDbLayerTableRecord
  2
teef
 70
0
  6
CONTINUOUS
  0
LAYER
  5
58
100
AcDbSymbolTableRecord
100
AcDbLayerTableRecord
  2
Layer
 70
0
  6
CONTINUOUS
  0
ENDTAB
  0
TABLE
  2
STYLE
  5
3
330
0
100
AcDbSymbolTable
 70
     1
  0
STYLE
  5
11
330
3
100
AcDbSymbolTableRecord
100
AcDbTextStyleTableRecord
  2
STANDARD
 70
     0
 40
0.0
 41
1.0
 50
0.0
 71
     0
 42
2.5
  3
txt
  4

  0
ENDTAB
  0
TABLE
  2
VIEW
  5
6
330
0
100
AcDbSymbolTable
 70
     0
  0
ENDTAB
  0
TABLE
  2
UCS
  5
7
330
0
100
AcDbSymbolTable
 70
     0
  0
ENDTAB
  0
TABLE
  2
APPID
  5
9
330
0
100
AcDbSymbolTable
 70
     2
  0
APPID
  5
12
330
9
100
AcDbSymbolTableRecord
100
AcDbRegAppTableRecord
  2
ACAD
 70
     0
  0
ENDTAB
  0
TABLE
  2
DIMSTYLE
  5
A
330
0
100
AcDbSymbolTable
 70
     1
  0
DIMSTYLE
105
27
330
A
100
AcDbSymbolTableRecord
100
AcDbDimStyleTableRecord
  2
ISO-25
 70
     0
  3

  4

  5

  6

  7

 40
1.0
 41
2.5
 42
0.625
 43
3.75
 44
1.25
 45
0.0
 46
0.0
 47
0.0
 48
0.0
140
2.5
141
2.5
142
0.0
143
0.03937007874016
144
1.0
145
0.0
146
1.0
147
0.625
 71
     0
 72
     0
 73
     0
 74
     0
 75
     0
 76
     0
 77
     1
 78
     8
170
     0
171
     3
172
     1
173
     0
174
     0
175
     0
176
     0
177
     0
178
     0
270
     2
271
     2
272
     2
273
     2
274
     3
340
11
275
     0
280
     0
281
     0
282
     0
283
     0
284
     8
285
     0
286
     0
287
     3
288
     0
  0
ENDTAB
  0
TABLE
  2
BLOCK_RECORD
  5
1
330
0
100
AcDbSymbolTable
 70
     1
  0
BLOCK_RECORD
  5
1F
330
1
100
AcDbSymbolTableRecord
100
AcDbBlockTableRecord
  2
*MODEL_SPACE
  0
BLOCK_RECORD
  5
1B
330
1
100
AcDbSymbolTableRecord
100
AcDbBlockTableRecord
  2
*PAPER_SPACE
  0
ENDTAB
  0
ENDSEC
  0
SECTION
  2
BLOCKS
  0
BLOCK
  5
20
330
1F
100
AcDbEntity
  8
0
100
AcDbBlockBegin
  2
*MODEL_SPACE
 70
     0
 10
0.0
 20
0.0
 30
0.0
  3
*MODEL_SPACE
  1

  0
ENDBLK
  5
21
330
1F
100
AcDbEntity
  8
0
100
AcDbBlockEnd
  0
BLOCK
  5
1C
330
1B
100
AcDbEntity
 67
     1
  8
0
100
AcDbBlockBegin
  2
*PAPER_SPACE
  1

  0
ENDBLK
  5
1D
330
1B
100
AcDbEntity
 67
     1
  8
0
100
AcDbBlockEnd
  0
ENDSEC
  0
SECTION
  2
ENTITIES
  0
SPLINE
  5
100
100
AcDbEntity
  8
purp
 62
7
100
AcDbSpline
 70
8
 71
3
 72
8
 73
4
 74
0
 40
0
 40
0
 40
0
 40
0
 40
1
 40
1
 40
1
 40
1
 10
0.419874
 20
0.142945
 30
0.0
 10
0.419874
 20
0.142945
 30
0.0
 10
0.391113
 20
0.255886
 30
0.0
 10
0.393217
 20
0.313409
 30
0.0
  0
SPLINE
  5
101
100
AcDbEntity
  8
purp
 62
7
100
AcDbSpline
 70
8
 71
3
 72
8
 73
4
 74
0
 40
0
 40
0
 40
0
 40
0
 40
1
 40
1
 40
1
 40
1
 10
0.393217
 20
0.313409
 30
0.0
 10
0.395322
 20
0.370931
 30
0.0
 10
0.436009
 20
0.508424
 30
0.0
 10
0.436009
 20
0.508424
 30
0.0
  0
LWPOLYLINE
  5
102
100
AcDbEntity
  8
purp
 62
7
100
AcDbPolyline
 90
10
 70
0
 10
1.148727
 20
0.022288
 30
0.0
 10
1.016145
 20
0.066483
 30
0.0
 10
0.928458
 20
0.128214
 30
0.0
 10
0.813413
 20
0.153468
 30
0.0
 10
0.594546
 20
0.014572
 30
0.0
 10
0.544740
 20
0.032811
 30
0.0
 10
0.501248
 20
0.012467
 30
0.0
 10
0.463367
 20
0.045438
 30
0.0
 10
0.389008
 20
0.031408
 30
0.0
 10
0.419874
 20
0.142945
 30
0.0
  0
SPLINE
  5
103
100
AcDbEntity
  8
purp
 62
7
100
AcDbSpline
 70
8
 71
3
 72
8
 73
4
 74
0
 40
0
 40
0
 40
0
 40
0
 40
1
 40
1
 40
1
 40
1
 10
0.057903
 20
0.457215
 30
0.0
 10
0.057903
 20
0.457215
 30
0.0
 10
0.141381
 20
0.760261
 30
0.0
 10
0.215038
 20
0.840231
 30
0.0
  0
SPLINE
  5
104
100
AcDbEntity
  8
purp
 62
7
100
AcDbSpline
 70
8
 71
3
 72
8
 73
4
 74
0
 40
0
 40
0
 40
0
 40
0
 40
1
 40
1
 40
1
 40
1
 10
0.215038
 20
0.840231
 30
0.0
 10
0.288695
 20
0.920202
 30
0.0
 10
0.349725
 20
1.005083
 30
0.0
 10
0.349725
 20
1.005083
 30
0.0
  0
LWPOLYLINE
  5
105
100
AcDbEntity
  8
purp
 62
7
100
AcDbPolyline
 90
7
 70
0
 10
0.436009
 20
0.508424
 30
0.0
 10
0.398128
 20
0.594708
 30
0.0
 10
0.282381
 20
0.467036
 30
0.0
 10
0.272560
 20
0.391976
 30
0.0
 10
0.194694
 20
0.437573
 30
0.0
 10
0.188381
 20
0.359707
 30
0.0
 10
0.057903
 20
0.457215
 30
0.0
  0
SPLINE
  5
106
100
AcDbEntity
  8
purp
 62
7
100
AcDbSpline
 70
8
 71
3
 72
8
 73
4
 74
0
 40
0
 40
0
 40
0
 40
0
 40
1
 40
1
 40
1
 40
1
 10
1.850924
 20
1.880548
 30
0.0
 10
1.850924
 20
1.880548
 30
0.0
 10
1.706416
 20
1.637130
 30
0.0
 10
1.662221
 20
1.503845
 30
0.0
  0
SPLINE
  5
107
100
AcDbEntity
  8
purp
 62
7
100
AcDbSpline
 70
8
 71
3
 72
8
 73
4
 74
0
 40
0
 40
0
 40
0
 40
0
 40
1
 40
1
 40
1
 40
1
 10
1.662221
 20
1.503845
 30
0.0
 10
1.618027
 20
1.370561
 30
0.0
 10
1.594176
 20
1.253412
 30
0.0
 10
1.594176
 20
1.253412
 30
0.0
  0
LWPOLYLINE
  5
108
100
AcDbEntity
  8
purp
 62
7
100
AcDbPolyline
 90
15
 70
0
 10
0.349725
 20
1.005083
 30
0.0
 10
0.283083
 20
1.033844
 30
0.0
 10
0.360247
 20
1.091367
 30
0.0
 10
0.212232
 20
1.242188
 30
0.0
 10
0.438113
 20
1.277263
 30
0.0
 10
0.170843
 20
1.911414
 30
0.0
 10
0.762204
 20
1.637130
 30
0.0
 10
0.793069
 20
1.642040
 30
0.0
 10
0.879353
 20
1.790055
 30
0.0
 10
0.912323
 20
1.719204
 30
0.0
 10
1.100324
 20
1.932459
 30
0.0
 10
1.147324
 20
1.650458
 30
0.0
 10
1.326205
 20
1.724816
 30
0.0
 10
1.286220
 20
1.629413
 30
0.0
 10
1.850924
 20
1.880548
 30
0.0
  0
SPLINE
  5
109
100
AcDbEntity
  8
purp
 62
7
100
AcDbSpline
 70
8
 71
3
 72
8
 73
4
 74
0
 40
0
 40
0
 40
0
 40
0
 40
1
 40
1
 40
1
 40
1
 10
1.664326
 20
1.024023
 30
0.0
 10
1.664326
 20
1.024023
 30
0.0
 10
1.793401
 20
0.874605
 30
0.0
 10
1.846715
 20
0.763067
 30
0.0
  0
SPLINE
  5
10a
100
AcDbEntity
  8
purp
 62
7
100
AcDbSpline
 70
8
 71
3
 72
8
 73
4
 74
0
 40
0
 40
0
 40
0
 40
0
 40
1
 40
1
 40
1
 40
1
 10
1.846715
 20
0.763067
 30
0.0
 10
1.900028
 20
0.651529
 30
0.0
 10
1.930192
 20
0.531574
 30
0.0
 10
1.930192
 20
0.531574
 30
0.0
  0
LWPOLYLINE
  5
10b
100
AcDbEntity
  8
purp
 62
7
100
AcDbPolyline
 90
5
 70
0
 10
1.594176
 20
1.253412
 30
0.0
 10
1.769550
 20
1.277263
 30
0.0
 10
1.653102
 20
1.101889
 30
0.0
 10
1.713431
 20
1.068919
 30
0.0
 10
1.664326
 20
1.024023
 30
0.0
  0
SPLINE
  5
10c
100
AcDbEntity
  8
purp
 62
7
100
AcDbSpline
 70
8
 71
3
 72
8
 73
4
 74
0
 40
0
 40
0
 40
0
 40
0
 40
1
 40
1
 40
1
 40
1
 10
1.871968
 20
0.380752
 30
0.0
 10
1.871968
 20
0.380752
 30
0.0
 10
1.848819
 20
0.351991
 30
0.0
 10
1.824267
 20
0.347782
 30
0.0
  0
SPLINE
  5
10d
100
AcDbEntity
  8
purp
 62
7
100
AcDbSpline
 70
8
 71
3
 72
8
 73
4
 74
0
 40
0
 40
0
 40
0
 40
0
 40
1
 40
1
 40
1
 40
1
 10
1.824267
 20
0.347782
 30
0.0
 10
1.799714
 20
0.343573
 30
0.0
 10
1.791297
 20
0.348483
 30
0.0
 10
1.791297
 20
0.348483
 30
0.0
  0
SPLINE
  5
10e
100
AcDbEntity
  8
purp
 62
7
100
AcDbSpline
 70
8
 71
3
 72
8
 73
4
 74
0
 40
0
 40
0
 40
0
 40
0
 40
1
 40
1
 40
1
 40
1
 10
1.791297
 20
0.348483
 30
0.0
 10
1.791297
 20
0.348483
 30
0.0
 10
1.809535
 20
0.383558
 30
0.0
 10
1.805326
 20
0.407409
 30
0.0
  0
SPLINE
  5
10f
100
AcDbEntity
  8
purp
 62
7
100
AcDbSpline
 70
8
 71
3
 72
8
 73
4
 74
0
 40
0
 40
0
 40
0
 40
0
 40
1
 40
1
 40
1
 40
1
 10
1.805326
 20
0.407409
 30
0.0
 10
1.801117
 20
0.431259
 30
0.0
 10
1.790595
 20
0.436170
 30
0.0
 10
1.790595
 20
0.436170
 30
0.0
  0
LWPOLYLINE
  5
110
100
AcDbEntity
  8
purp
 62
7
100
AcDbPolyline
 90
4
 70
0
 10
1.930192
 20
0.531574
 30
0.0
 10
1.918969
 20
0.403200
 30
0.0
 10
1.898625
 20
0.362513
 30
0.0
 10
1.871968
 20
0.380752
 30
0.0
  0
SPLINE
  5
111
100
AcDbEntity
  8
purp
 62
7
100
AcDbSpline
 70
8
 71
3
 72
8
 73
4
 74
0
 40
0
 40
0
 40
0
 40
0
 40
1
 40
1
 40
1
 40
1
 10
1.734475
 20
0.414424
 30
0.0
 10
1.734475
 20
0.414424
 30
0.0
 10
1.723953
 20
0.490886
 30
0.0
 10
1.695192
 20
0.514737
 30
0.0
  0
SPLINE
  5
112
100
AcDbEntity
  8
purp
 62
7
100
AcDbSpline
 70
8
 71
3
 72
8
 73
4
 74
0
 40
0
 40
0
 40
0
 40
0
 40
1
 40
1
 40
1
 40
1
 10
1.695192
 20
0.514737
 30
0.0
 10
1.666430
 20
0.538588
 30
0.0
 10
1.620833
 20
0.569454
 30
0.0
 10
1.620833
 20
0.569454
 30
0.0
  0
LWPOLYLINE
  5
113
100
AcDbEntity
  8
purp
 62
7
100
AcDbPolyline
 90
3
 70
0
 10
1.790595
 20
0.436170
 30
0.0
 10
1.753416
 20
0.410916
 30
0.0
 10
1.734475
 20
0.414424
 30
0.0
  0
SPLINE
  5
114
100
AcDbEntity
  8
purp
 62
7
100
AcDbSpline
 70
8
 71
3
 72
8
 73
4
 74
0
 40
0
 40
0
 40
0
 40
0
 40
1
 40
1
 40
1
 40
1
 10
1.585759
 20
0.476155
 30
0.0
 10
1.585759
 20
0.476155
 30
0.0
 10
1.641177
 20
0.360408
 30
0.0
 10
1.645386
 20
0.296572
 30
0.0
  0
SPLINE
  5
115
100
AcDbEntity
  8
purp
 62
7
100
AcDbSpline
 70
8
 71
3
 72
8
 73
4
 74
0
 40
0
 40
0
 40
0
 40
0
 40
1
 40
1
 40
1
 40
1
 10
1.645386
 20
0.296572
 30
0.0
 10
1.649595
 20
0.232736
 30
0.0
 10
1.641177
 20
0.159781
 30
0.0
 10
1.641177
 20
0.159781
 30
0.0
  0
LWPOLYLINE
  5
116
100
AcDbEntity
  8
purp
 62
7
100
AcDbPolyline
 90
2
 70
0
 10
1.620833
 20
0.569454
 30
0.0
 10
1.585759
 20
0.476155
 30
0.0
  0
SPLINE
  5
117
100
AcDbEntity
  8
purp
 62
7
100
AcDbSpline
 70
8
 71
3
 72
8
 73
4
 74
0
 40
0
 40
0
 40
0
 40
0
 40
1
 40
1
 40
1
 40
1
 10
1.605400
 20
0.037721
 30
0.0
 10
1.605400
 20
0.037721
 30
0.0
 10
1.582953
 20
0.004049
 30
0.0
 10
1.579445
 20
0.004049
 30
0.0
  0
SPLINE
  5
118
100
AcDbEntity
  8
purp
 62
7
100
AcDbSpline
 70
8
 71
3
 72
8
 73
4
 74
0
 40
0
 40
0
 40
0
 40
0
 40
1
 40
1
 40
1
 40
1
 10
1.579445
 20
0.004049
 30
0.0
 10
1.575938
 20
0.004049
 30
0.0
 10
1.498773
 20
0.028601
 30
0.0
 10
1.498773
 20
0.028601
 30
0.0
  0
LWPOLYLINE
  5
119
100
AcDbEntity
  8
purp
 62
7
100
AcDbPolyline
 90
3
 70
0
 10
1.641177
 20
0.159781
 30
0.0
 10
1.697998
 20
0.033512
 30
0.0
 10
1.605400
 20
0.037721
 30
0.0
  0
SPLINE
  5
11a
100
AcDbEntity
  8
purp
 62
7
100
AcDbSpline
 70
8
 71
3
 72
8
 73
4
 74
0
 40
0
 40
0
 40
0
 40
0
 40
1
 40
1
 40
1
 40
1
 10
1.419504
 20
0.004049
 30
0.0
 10
1.419504
 20
0.004049
 30
0.0
 10
1.411086
 20
0.093840
 30
0.0
 10
1.385131
 20
0.101557
 30
0.0
  0
SPLINE
  5
11b
100
AcDbEntity
  8
purp
 62
7
100
AcDbSpline
 70
8
 71
3
 72
8
 73
4
 74
0
 40
0
 40
0
 40
0
 40
0
 40
1
 40
1
 40
1
 40
1
 10
1.385131
 20
0.101557
 30
0.0
 10
1.359176
 20
0.109273
 30
0.0
 10
1.255354
 20
0.154169
 30
0.0
 10
1.255354
 20
0.154169
 30
0.0
  0
LWPOLYLINE
  5
11c
100
AcDbEntity
  8
purp
 62
7
100
AcDbPolyline
 90
2
 70
0
 10
1.498773
 20
0.028601
 30
0.0
 10
1.419504
 20
0.004049
 30
0.0
  0
SPLINE
  5
11d
100
AcDbEntity
  8
silk
 62
7
100
AcDbSpline
 70
8
 71
3
 72
8
 73
4
 74
0
 40
0
 40
0
 40
0
 40
0
 40
1
 40
1
 40
1
 40
1
 10
0.398810
 20
0.607143
 30
0.0
 10
0.398810
 20
0.607143
 30
0.0
 10
0.359127
 20
0.779762
 30
0.0
 10
0.365079
 20
0.817460
 30
0.0
  0
SPLINE
  5
11e
100
AcDbEntity
  8
silk
 62
7
100
AcDbSpline
 70
8
 71
3
 72
8
 73
4
 74
0
 40
0
 40
0
 40
0
 40
0
 40
1
 40
1
 40
1
 40
1
 10
0.365079
 20
0.817460
 30
0.0
 10
0.371032
 20
0.855159
 30
0.0
 10
0.378968
 20
0.892857
 30
0.0
 10
0.378968
 20
0.892857
 30
0.0
  0
SPLINE
  5
11f
100
AcDbEntity
  8
silk
 62
7
100
AcDbSpline
 70
8
 71
3
 72
8
 73
4
 74
0
 40
0
 40
0
 40
0
 40
0
 40
1
 40
1
 40
1
 40
1
 10
0.378968
 20
0.892857
 30
0.0
 10
0.378968
 20
0.892857
 30
0.0
 10
0.400794
 20
0.896825
 30
0.0
 10
0.420635
 20
0.871032
 30
0.0
  0
SPLINE
  5
120
100
AcDbEntity
  8
silk
 62
7
100
AcDbSpline
 70
8
 71
3
 72
8
 73
4
 74
0
 40
0
 40
0
 40
0
 40
0
 40
1
 40
1
 40
1
 40
1
 10
0.420635
 20
0.871032
 30
0.0
 10
0.440476
 20
0.845238
 30
0.0
 10
0.501984
 20
0.710317
 30
0.0
 10
0.521825
 20
0.700397
 30
0.0
  0
SPLINE
  5
121
100
AcDbEntity
  8
silk
 62
7
100
AcDbSpline
 70
8
 71
3
 72
8
 73
4
 74
0
 40
0
 40
0
 40
0
 40
0
 40
1
 40
1
 40
1
 40
1
 10
0.521825
 20
0.700397
 30
0.0
 10
0.541667
 20
0.690476
 30
0.0
 10
0.571429
 20
0.656746
 30
0.0
 10
0.571429
 20
0.656746
 30
0.0
  0
LWPOLYLINE
  5
122
100
AcDbEntity
  8
purp
 62
7
100
AcDbPolyline
 90
4
 70
0
 10
1.255354
 20
0.154169
 30
0.0
 10
1.180996
 20
0.140841
 30
0.0
 10
1.171877
 20
0.060870
 30
0.0
 10
1.148727
 20
0.022288
 30
0.0
  0
SPLINE
  5
123
100
AcDbEntity
  8
silk
 62
7
100
AcDbSpline
 70
8
 71
3
 72
8
 73
4
 74
0
 40
0
 40
0
 40
0
 40
0
 40
1
 40
1
 40
1
 40
1
 10
0.444444
 20
1.281746
 30
0.0
 10
0.444444
 20
1.281746
 30
0.0
 10
0.563492
 20
1.521825
 30
0.0
 10
0.759921
 20
1.567460
 30
0.0
  0
SPLINE
  5
124
100
AcDbEntity
  8
silk
 62
7
100
AcDbSpline
 70
8
 71
3
 72
8
 73
4
 74
0
 40
0
 40
0
 40
0
 40
0
 40
1
 40
1
 40
1
 40
1
 10
0.759921
 20
1.567460
 30
0.0
 10
0.956349
 20
1.613095
 30
0.0
 10
1.045635
 20
1.577381
 30
0.0
 10
1.045635
 20
1.577381
 30
0.0
  0
SPLINE
  5
125
100
AcDbEntity
  8
silk
 62
7
100
AcDbSpline
 70
8
 71
3
 72
8
 73
4
 74
0
 40
0
 40
0
 40
0
 40
0
 40
1
 40
1
 40
1
 40
1
 10
1.045635
 20
1.577381
 30
0.0
 10
1.045635
 20
1.577381
 30
0.0
 10
1.105159
 20
1.523809
 30
0.0
 10
1.039683
 20
1.446429
 30
0.0
  0
SPLINE
  5
126
100
AcDbEntity
  8
silk
 62
7
100
AcDbSpline
 70
8
 71
3
 72
8
 73
4
 74
0
 40
0
 40
0
 40
0
 40
0
 40
1
 40
1
 40
1
 40
1
 10
1.039683
 20
1.446429
 30
0.0
 10
0.974206
 20
1.369048
 30
0.0
 10
0.968254
 20
1.351190
 30
0.0
 10
0.968254
 20
1.351190
 30
0.0
  0
SPLINE
  5
127
100
AcDbEntity
  8
silk
 62
7
100
AcDbSpline
 70
8
 71
3
 72
8
 73
4
 74
0
 40
0
 40
0
 40
0
 40
0
 40
1
 40
1
 40
1
 40
1
 10
0.968254
 20
1.351190
 30
0.0
 10
0.968254
 20
1.351190
 30
0.0
 10
0.968254
 20
1.319444
 30
0.0
 10
0.974206
 20
1.305556
 30
0.0
  0
SPLINE
  5
128
100
AcDbEntity
  8
silk
 62
7
100
AcDbSpline
 70
8
 71
3
 72
8
 73
4
 74
0
 40
0
 40
0
 40
0
 40
0
 40
1
 40
1
 40
1
 40
1
 10
0.974206
 20
1.305556
 30
0.0
 10
0.980159
 20
1.291667
 30
0.0
 10
0.982143
 20
1.271825
 30
0.0
 10
0.982143
 20
1.271825
 30
0.0
  0
LWPOLYLINE
  5
129
100
AcDbEntity
  8
silk
 62
7
100
AcDbPolyline
 90
11
 70
0
 10
0.571429
 20
0.656746
 30
0.0
 10
0.529762
 20
0.642857
 30
0.0
 10
0.525794
 20
0.623016
 30
0.0
 10
0.579365
 20
0.577381
 30
0.0
 10
0.535714
 20
0.557540
 30
0.0
 10
0.541667
 20
0.513889
 30
0.0
 10
0.623016
 20
0.382936
 30
0.0
 10
0.654762
 20
0.301587
 30
0.0
 10
0.628968
 20
0.299603
 30
0.0
 10
0.458333
 20
0.484127
 30
0.0
 10
0.398810
 20
0.607143
 30
0.0
  0
SPLINE
  5
12a
100
AcDbEntity
  8
silk
 62
7
100
AcDbSpline
 70
8
 71
3
 72
8
 73
4
 74
0
 40
0
 40
0
 40
0
 40
0
 40
1
 40
1
 40
1
 40
1
 10
0.944444
 20
1.236111
 30
0.0
 10
0.944444
 20
1.236111
 30
0.0
 10
0.894841
 20
1.206349
 30
0.0
 10
0.902778
 20
1.170635
 30
0.0
  0
SPLINE
  5
12b
100
AcDbEntity
  8
silk
 62
7
100
AcDbSpline
 70
8
 71
3
 72
8
 73
4
 74
0
 40
0
 40
0
 40
0
 40
0
 40
1
 40
1
 40
1
 40
1
 10
0.902778
 20
1.170635
 30
0.0
 10
0.910714
 20
1.134921
 30
0.0
 10
0.926587
 20
1.073413
 30
0.0
 10
0.926587
 20
1.073413
 30
0.0
  0
LWPOLYLINE
  5
12c
100
AcDbEntity
  8
silk
 62
7
100
AcDbPolyline
 90
3
 70
0
 10
0.982143
 20
1.271825
 30
0.0
 10
0.936508
 20
1.250000
 30
0.0
 10
0.944444
 20
1.236111
 30
0.0
  0
SPLINE
  5
12d
100
AcDbEntity
  8
silk
 62
7
100
AcDbSpline
 70
8
 71
3
 72
8
 73
4
 74
0
 40
0
 40
0
 40
0
 40
0
 40
1
 40
1
 40
1
 40
1
 10
0.948413
 20
1.011905
 30
0.0
 10
0.948413
 20
1.011905
 30
0.0
 10
0.777778
 20
1.238095
 30
0.0
 10
0.753968
 20
1.257936
 30
0.0
  0
SPLINE
  5
12e
100
AcDbEntity
  8
silk
 62
7
100
AcDbSpline
 70
8
 71
3
 72
8
 73
4
 74
0
 40
0
 40
0
 40
0
 40
0
 40
1
 40
1
 40
1
 40
1
 10
0.753968
 20
1.257936
 30
0.0
 10
0.730159
 20
1.277778
 30
0.0
 10
0.710317
 20
1.293651
 30
0.0
 10
0.710317
 20
1.293651
 30
0.0
  0
LWPOLYLINE
  5
12f
100
AcDbEntity
  8
silk
 62
7
100
AcDbPolyline
 90
3
 70
0
 10
0.926587
 20
1.073413
 30
0.0
 10
0.980159
 20
1.059524
 30
0.0
 10
0.948413
 20
1.011905
 30
0.0
  0
SPLINE
  5
130
100
AcDbEntity
  8
silk
 62
7
100
AcDbSpline
 70
8
 71
3
 72
8
 73
4
 74
0
 40
0
 40
0
 40
0
 40
0
 40
1
 40
1
 40
1
 40
1
 10
1.081349
 20
1.079365
 30
0.0
 10
1.081349
 20
1.079365
 30
0.0
 10
1.186508
 20
1.192460
 30
0.0
 10
1.182540
 20
1.208333
 30
0.0
  0
SPLINE
  5
131
100
AcDbEntity
  8
silk
 62
7
100
AcDbSpline
 70
8
 71
3
 72
8
 73
4
 74
0
 40
0
 40
0
 40
0
 40
0
 40
1
 40
1
 40
1
 40
1
 10
1.182540
 20
1.208333
 30
0.0
 10
1.178571
 20
1.224206
 30
0.0
 10
1.170635
 20
1.246032
 30
0.0
 10
1.170635
 20
1.246032
 30
0.0
  0
SPLINE
  5
132
100
AcDbEntity
  8
silk
 62
7
100
AcDbSpline
 70
8
 71
3
 72
8
 73
4
 74
0
 40
0
 40
0
 40
0
 40
0
 40
1
 40
1
 40
1
 40
1
 10
1.170635
 20
1.246032
 30
0.0
 10
1.170635
 20
1.246032
 30
0.0
 10
1.115079
 20
1.224206
 30
0.0
 10
1.101190
 20
1.206349
 30
0.0
  0
SPLINE
  5
133
100
AcDbEntity
  8
silk
 62
7
100
AcDbSpline
 70
8
 71
3
 72
8
 73
4
 74
0
 40
0
 40
0
 40
0
 40
0
 40
1
 40
1
 40
1
 40
1
 10
1.101190
 20
1.206349
 30
0.0
 10
1.087302
 20
1.188492
 30
0.0
 10
1.051587
 20
1.134921
 30
0.0
 10
1.051587
 20
1.134921
 30
0.0
  0
LWPOLYLINE
  5
134
100
AcDbEntity
  8
silk
 62
7
100
AcDbPolyline
 90
6
 70
0
 10
0.710317
 20
1.293651
 30
0.0
 10
0.726190
 20
1.251984
 30
0.0
 10
0.628968
 20
1.315476
 30
0.0
 10
0.591270
 20
1.299603
 30
0.0
 10
0.601190
 20
1.355159
 30
0.0
 10
0.444444
 20
1.281746
 30
0.0
  0
LWPOLYLINE
  5
135
100
AcDbEntity
  8
silk
 62
7
100
AcDbPolyline
 90
4
 70
0
 10
1.051587
 20
1.134921
 30
0.0
 10
1.103175
 20
1.162698
 30
0.0
 10
1.069444
 20
1.081349
 30
0.0
 10
1.081349
 20
1.079365
 30
0.0
  0
LWPOLYLINE
  5
136
100
AcDbEntity
  8
silk
 62
7
100
AcDbPolyline
 90
10
 70
0
 10
1.355159
 20
1.658730
 30
0.0
 10
1.329365
 20
1.609127
 30
0.0
 10
1.422619
 20
1.636905
 30
0.0
 10
1.361111
 20
1.529762
 30
0.0
 10
1.488095
 20
1.619048
 30
0.0
 10
1.503968
 20
1.613095
 30
0.0
 10
1.543651
 20
1.642857
 30
0.0
 10
1.541667
 20
1.593254
 30
0.0
 10
1.853175
 20
1.876984
 30
0.0
 10
1.355159
 20
1.658730
 30
0.0
  0
LWPOLYLINE
  5
137
100
AcDbEntity
  8
newsilk
 62
2
100
AcDbPolyline
 90
2
 70
0
 10
0.934391
 20
0.998929
 30
0.0
 10
0.659405
 20
1.290750
 30
0.0
  0
LWPOLYLINE
  5
138
100
AcDbEntity
  8
newsilk
 62
2
100
AcDbPolyline
 90
2
 70
0
 10
1.074038
 20
0.981470
 30
0.0
 10
1.391114
 20
1.205949
 30
0.0
  0
LWPOLYLINE
  5
139
100
AcDbEntity
  8
newsilk
 62
2
100
AcDbPolyline
 90
3
 70
0
 10
0.606793
 20
1.094332
 30
0.0
 10
0.582241
 20
1.091526
 30
0.0
 10
0.583644
 20
1.064869
 30
0.0
  0
LWPOLYLINE
  5
13a
100
AcDbEntity
  8
newsilk
 62
2
100
AcDbPolyline
 90
4
 70
0
 10
1.436508
 20
1.076389
 30
0.0
 10
1.449653
 20
1.075893
 30
0.0
 10
1.467262
 20
1.057540
 30
0.0
 10
1.468254
 20
1.004960
 30
0.0
  0
LWPOLYLINE
  5
13b
100
AcDbEntity
  8
newsilk
 62
7
100
AcDbPolyline
 90
8
 70
0
 10
1.373016
 20
1.670635
 30
0.0
 10
1.327381
 20
1.607143
 30
0.0
 10
1.418651
 20
1.630952
 30
0.0
 10
1.359127
 20
1.527778
 30
0.0
 10
1.547619
 20
1.642857
 30
0.0
 10
1.547619
 20
1.593254
 30
0.0
 10
1.845238
 20
1.880952
 30
0.0
 10
1.373016
 20
1.670635
 30
0.0
  0
LWPOLYLINE
  5
13c
100
AcDbEntity
  8
newsilk
 62
2
100
AcDbPolyline
 90
4
 70
0
 10
0.370389
 20
0.820749
 30
0.0
 10
0.369863
 20
0.776029
 30
0.0
 10
0.380912
 20
0.692375
 30
0.0
 10
0.406867
 20
0.605390
 30
0.0
  0
LWPOLYLINE
  5
13d
100
AcDbEntity
  8
newsilk
 62
2
100
AcDbPolyline
 90
3
 70
0
 10
0.448957
 20
0.500166
 30
0.0
 10
0.518405
 20
0.387927
 30
0.0
 10
0.568912
 20
0.336016
 30
0.0
  0
LWPOLYLINE
  5
13e
100
AcDbEntity
  8
newsilk
 62
2
100
AcDbPolyline
 90
3
 70
0
 10
1.623259
 20
0.595569
 30
0.0
 10
1.647110
 20
0.704301
 30
0.0
 10
1.649916
 20
0.766032
 30
0.0
  0
LWPOLYLINE
  5
13f
100
AcDbEntity
  8
newsilk
 62
2
100
AcDbPolyline
 90
3
 70
0
 10
1.402990
 20
0.258150
 30
0.0
 10
1.512423
 20
0.356359
 30
0.0
 10
1.571348
 20
0.454569
 30
0.0
  0
LWPOLYLINE
  5
140
100
AcDbEntity
  8
teef
 62
7
100
AcDbPolyline
 90
8
 70
0
 10
0.622024
 20
1.018849
 30
0.0
 10
0.696429
 20
0.953373
 30
0.0
 10
0.730159
 20
0.935516
 30
0.0
 10
0.731151
 20
0.785714
 30
0.0
 10
0.711062
 20
0.809896
 30
0.0
 10
0.668651
 20
0.886905
 30
0.0
 10
0.622024
 20
1.018849
 30
0.0
 10
0.622024
 20
1.018849
 30
0.0
  0
LWPOLYLINE
  5
141
100
AcDbEntity
  8
teef
 62
7
100
AcDbPolyline
 90
7
 70
0
 10
0.739376
 20
0.930182
 30
0.0
 10
0.805316
 20
0.916152
 30
0.0
 10
0.850212
 20
0.912645
 30
0.0
 10
0.850212
 20
0.706405
 30
0.0
 10
0.777256
 20
0.740778
 30
0.0
 10
0.740077
 20
0.776555
 30
0.0
 10
0.739376
 20
0.930182
 30
0.0
  0
LWPOLYLINE
  5
142
100
AcDbEntity
  8
teef
 62
7
100
AcDbPolyline
 90
6
 70
0
 10
0.864242
 20
0.913346
 30
0.0
 10
1.017869
 20
0.900719
 30
0.0
 10
1.011556
 20
0.687465
 30
0.0
 10
0.984899
 20
0.687465
 30
0.0
 10
0.861436
 20
0.700092
 30
0.0
 10
0.864242
 20
0.913346
 30
0.0
  0
LWPOLYLINE
  5
143
100
AcDbEntity
  8
teef
 62
7
100
AcDbPolyline
 90
7
 70
0
 10
1.029794
 20
0.900018
 30
0.0
 10
1.115377
 20
0.897913
 30
0.0
 10
1.155362
 20
0.902824
 30
0.0
 10
1.160974
 20
0.700092
 30
0.0
 10
1.140631
 20
0.693077
 30
0.0
 10
1.024884
 20
0.687465
 30
0.0
 10
1.029794
 20
0.900018
 30
0.0
  0
LWPOLYLINE
  5
144
100
AcDbEntity
  8
teef
 62
7
100
AcDbPolyline
 90
6
 70
0
 10
1.170795
 20
0.903525
 30
0.0
 10
1.280930
 20
0.917555
 30
0.0
 10
1.282333
 20
0.768137
 30
0.0
 10
1.238840
 20
0.729555
 30
0.0
 10
1.174302
 20
0.705704
 30
0.0
 10
1.170795
 20
0.903525
 30
0.0
  0
LWPOLYLINE
  5
145
100
AcDbEntity
  8
teef
 62
7
100
AcDbPolyline
 90
7
 70
0
 10
1.296362
 20
0.922466
 30
0.0
 10
1.404393
 20
0.965958
 30
0.0
 10
1.412109
 20
0.974376
 30
0.0
 10
1.357392
 20
0.843898
 30
0.0
 10
1.318810
 20
0.797600
 30
0.0
 10
1.296362
 20
0.777958
 30
0.0
 10
1.296362
 20
0.922466
 30
0.0
  0
LWPOLYLINE
  5
146
100
AcDbEntity
  8
Layer
 62
7
100
AcDbPolyline
 90
74
 70
0
 10
1.148347
 20
0.022448
 30
0.0
 10
1.015765
 20
0.066642
 30
0.0
 10
0.928078
 20
0.128374
 30
0.0
 10
0.813033
 20
0.153627
 30
0.0
 10
0.594166
 20
0.014731
 30
0.0
 10
0.544360
 20
0.032970
 30
0.0
 10
0.500867
 20
0.012627
 30
0.0
 10
0.462987
 20
0.045597
 30
0.0
 10
0.388628
 20
0.031567
 30
0.0
 10
0.419494
 20
0.143105
 30
0.0
 10
0.392837
 20
0.313568
 30
0.0
 10
0.435628
 20
0.508584
 30
0.0
 10
0.397748
 20
0.594868
 30
0.0
 10
0.282001
 20
0.467196
 30
0.0
 10
0.272180
 20
0.392136
 30
0.0
 10
0.194314
 20
0.437733
 30
0.0
 10
0.188001
 20
0.359867
 30
0.0
 10
0.057523
 20
0.457375
 30
0.0
 10
0.108469
 20
0.618894
 30
0.0
 10
0.159031
 20
0.746807
 30
0.0
 10
0.214657
 20
0.840391
 30
0.0
 10
0.349344
 20
1.005242
 30
0.0
 10
0.282702
 20
1.034003
 30
0.0
 10
0.359867
 20
1.091526
 30
0.0
 10
0.211851
 20
1.242347
 30
0.0
 10
0.437733
 20
1.277422
 30
0.0
 10
0.170463
 20
1.911573
 30
0.0
 10
0.761823
 20
1.637289
 30
0.0
 10
0.792689
 20
1.642199
 30
0.0
 10
0.878973
 20
1.790215
 30
0.0
 10
0.911943
 20
1.719364
 30
0.0
 10
1.099944
 20
1.932618
 30
0.0
 10
1.146944
 20
1.650617
 30
0.0
 10
1.325825
 20
1.724976
 30
0.0
 10
1.285840
 20
1.629572
 30
0.0
 10
1.850543
 20
1.880708
 30
0.0
 10
1.772765
 20
1.742338
 30
0.0
 10
1.661841
 20
1.504005
 30
0.0
 10
1.593796
 20
1.253571
 30
0.0
 10
1.769170
 20
1.277422
 30
0.0
 10
1.652722
 20
1.102048
 30
0.0
 10
1.713050
 20
1.069078
 30
0.0
 10
1.663946
 20
1.024182
 30
0.0
 10
1.735147
 20
0.935531
 30
0.0
 10
1.846334
 20
0.763226
 30
0.0
 10
1.908066
 20
0.605653
 30
0.0
 10
1.929812
 20
0.531733
 30
0.0
 10
1.918588
 20
0.403359
 30
0.0
 10
1.898245
 20
0.362673
 30
0.0
 10
1.871588
 20
0.380912
 30
0.0
 10
1.823887
 20
0.347941
 30
0.0
 10
1.790916
 20
0.348642
 30
0.0
 10
1.804946
 20
0.407568
 30
0.0
 10
1.790215
 20
0.436329
 30
0.0
 10
1.753036
 20
0.411075
 30
0.0
 10
1.734095
 20
0.414583
 30
0.0
 10
1.725239
 20
0.455796
 30
0.0
 10
1.694811
 20
0.514897
 30
0.0
 10
1.620453
 20
0.569613
 30
0.0
 10
1.585378
 20
0.476314
 30
0.0
 10
1.613614
 20
0.410462
 30
0.0
 10
1.645005
 20
0.296732
 30
0.0
 10
1.640796
 20
0.159940
 30
0.0
 10
1.697617
 20
0.033671
 30
0.0
 10
1.605020
 20
0.037880
 30
0.0
 10
1.579065
 20
0.004208
 30
0.0
 10
1.498393
 20
0.028761
 30
0.0
 10
1.419124
 20
0.004208
 30
0.0
 10
1.411671
 20
0.050069
 30
0.0
 10
1.384751
 20
0.101716
 30
0.0
 10
1.254974
 20
0.154328
 30
0.0
 10
1.180616
 20
0.141000
 30
0.0
 10
1.171496
 20
0.061030
 30
0.0
 10
1.148347
 20
0.022448
 30
0.0
  0
ENDSEC
  0
SECTION
  2
OBJECTS
  0
DICTIONARY
  5
C
330
0
100
AcDbDictionary
  3
ACAD_GROUP
350
D
  3
ACAD_MLINESTYLE
350
17
  0
DICTIONARY
  5
D
330
C
100
AcDbDictionary
  0
DICTIONARY
  5
1A
330
C
100
AcDbDictionary
  0
DICTIONARY
  5
17
330
C
100
AcDbDictionary
  3
STANDARD
350
18
  0
DICTIONARY
  5
19
330
C
100
AcDbDictionary
  0
ENDSEC
  0
EOF
